<svg xmlns="http://www.w3.org/2000/svg" viewBox="0 0 200 217.33"><defs><style>.cls-1{fill:#25336e;}.cls-2{fill:#e9611c;}.cls-3{fill:#fff;}</style></defs><title>Element 5</title><g id="Ebene_2" data-name="Ebene 2"><g id="Ebene_1-2" data-name="Ebene 1"><path class="cls-1" d="M82.34,188.41h0a22.3,22.3,0,0,0,21.29,28.93h12.55a12.45,12.45,0,0,0,11.14-18l-4.5-9A5.74,5.74,0,0,1,128,182h69.7l-43.79-7.72V126.87l13.37,2.36v29.9l12.29,2.17V133.75l13.37,2.36v27.54l7.1,1.25V131.32a7,7,0,0,0-7.62-7l-7.23.66a22.15,22.15,0,0,1-24-19.81,10.94,10.94,0,0,1,3.28-9q-48.51,11.35-60.79,19.07-5.86,3.87-5.84,6.88t5.05,8.77a7.39,7.39,0,0,1,1.94,4.39q0,3-2.8,3-3.06,0-6.42-3.54-15.78-18.08-21.08-27-3.85-6.58-3.87-8.38,0-4.2,8.2-6.7,11.08-3.52,73.3-18.81Q115.15,44,99.92,33.7A169.29,169.29,0,0,0,81.58,22.75l.24,2.41A6.22,6.22,0,0,1,75.63,32H0V182H77.62A4.94,4.94,0,0,1,82.34,188.41Z"/><path class="cls-1" d="M198.36,94.66a5.67,5.67,0,0,0,1.64-4V87.36q-4.18,1-8.51,1.93Q195,92,198.36,94.66Z"/><path class="cls-1" d="M171.45,70.25Q183.9,67.58,200,63.41V47.67l-46.28-8.16V32h-27c3,2.61,6.13,5.38,9.46,8.34Q165.73,66.7,171.45,70.25Z"/><path class="cls-1" d="M112.41,19.74l-.14-6.56A13.46,13.46,0,0,0,98.82,0h0a17.53,17.53,0,0,0-9.24,2.62,50.1,50.1,0,0,1,4.61,2.86Q100.34,9.61,112.41,19.74Z"/><path class="cls-2" d="M171.45,70.25q-5.72-3.55-35.29-29.91c-3.33-3-6.47-5.73-9.46-8.34h-9.08a5,5,0,0,1-5-4.94l-.15-7.32Q100.35,9.62,94.19,5.49a50.1,50.1,0,0,0-4.61-2.86,17.63,17.63,0,0,0-8.33,16.77l.33,3.36A169.29,169.29,0,0,1,99.92,33.7Q115.16,44,152.1,73.86,89.86,89.15,78.79,92.67q-8.24,2.49-8.2,6.7,0,1.8,3.87,8.38,5.29,9,21.08,27,3.35,3.58,6.42,3.54,2.84,0,2.8-3a7.39,7.39,0,0,0-1.94-4.39q-5-5.76-5.05-8.77t5.84-6.88q12.28-7.72,60.79-19.07a10.94,10.94,0,0,1,9.38-3L193.4,96.3a5.69,5.69,0,0,0,5-1.64Q195,92,191.49,89.29q4.33-1,8.51-1.93v-24Q183.9,67.57,171.45,70.25Z"/><polygon class="cls-3" points="192.9 136.1 179.53 133.75 179.53 161.29 167.24 159.12 167.24 129.22 153.87 126.87 153.87 174.28 197.65 182 200 182 200 164.9 192.9 163.65 192.9 136.1"/><polygon class="cls-3" points="200 47.67 200 32 153.72 32 153.72 39.51 200 47.67"/></g></g></svg>