<svg xmlns="http://www.w3.org/2000/svg" viewBox="0 0 200 150"><defs><style>.cls-1{fill:#25336e;}.cls-2{fill:#e9611c;}.cls-3{fill:#fff;}</style></defs><title>Element 3</title><g id="Ebene_2" data-name="Ebene 2"><g id="Ebene_1-2" data-name="Ebene 1"><path class="cls-1" d="M81.82,143.16l-.24-2.41q-13.23-6.67-22.5-7.07a36,36,0,0,0-13.69,1.75q-5.88,2.27-5.92-1.54,0-1.4,2.1-3,20.64-14.45,32.22-14.57a32.05,32.05,0,0,1,15.79,4.35A17.53,17.53,0,0,1,98.82,118h0a13.46,13.46,0,0,1,13.45,13.17l.14,6.56q6.32,5.3,14.28,12.26h27V130.29A41,41,0,0,1,154.82,120a20.72,20.72,0,0,1,3.51-7.36,13.78,13.78,0,0,1,7-4.88,22.08,22.08,0,0,1,10.48-.32,31.67,31.67,0,0,1,9.33,3.2,25,25,0,0,1,7.39,5.78A39.32,39.32,0,0,1,196,121a29.28,29.28,0,0,1,2.64,5.2,33.59,33.59,0,0,1,1.41,4.59V102.29l-46.28-8.16V46.71l13.37,2.36V79l10.59,1.87a16.55,16.55,0,0,1-6.18-12.9h0a11.39,11.39,0,0,1,7.88-10.83V53.59l13.37,2.36v1.42l1.3.11A5.46,5.46,0,0,0,200,52V43L153.72,34.8V6.59c0-2.42.11-4.59.29-6.59H117.5l-.8,9.61A20.06,20.06,0,0,1,96.71,28h0A15.89,15.89,0,0,1,81.15,8.87l.84-4A4,4,0,0,0,78.07,0H0V150H75.63A6.22,6.22,0,0,0,81.82,143.16Z"/><path class="cls-1" d="M195.09,0h-1.38c.1.22.21.43.31.66Z"/><path class="cls-1" d="M187.43,136a14.92,14.92,0,0,0-.92-3.15,9.86,9.86,0,0,0-1.53-2.7,11.91,11.91,0,0,0-3.63-3.06,18.25,18.25,0,0,0-5.09-1.53,8.25,8.25,0,0,0-5.11.51,5.78,5.78,0,0,0-2.94,2.87,13,13,0,0,0-1.25,4.56q-.16,2.26-.16,6.16v2.5l21,3.7v-1.22q0-2.49,0-4.72A28,28,0,0,0,187.43,136Z"/><polygon class="cls-1" points="198.12 25.11 200 25.44 200 17.7 198.12 18.8 198.12 25.11"/><path class="cls-1" d="M183.15,6.84A10.64,10.64,0,0,0,180,3.76a13.47,13.47,0,0,0-4.8-1.67,8.91,8.91,0,0,0-4.55.21,5.18,5.18,0,0,0-2.94,2.85,10.74,10.74,0,0,0-.9,3.52q-.19,2-.19,5v5.89l18.88,3.33v-5a38.32,38.32,0,0,0-.45-6.32A11.13,11.13,0,0,0,183.15,6.84Z"/><path class="cls-2" d="M117.61,150h9.08q-8-7-14.28-12.26l.15,7.32A5,5,0,0,0,117.61,150Z"/><path class="cls-2" d="M89.59,120.62a32.05,32.05,0,0,0-15.79-4.35q-11.58.12-32.22,14.57-2.11,1.63-2.1,3,0,3.81,5.92,1.54a36,36,0,0,1,13.69-1.75q9.26.4,22.5,7.07l-.33-3.36A17.63,17.63,0,0,1,89.59,120.62Z"/><path class="cls-3" d="M196,121a39.32,39.32,0,0,0-3.39-4.53,25,25,0,0,0-7.39-5.78,31.67,31.67,0,0,0-9.33-3.2,22.08,22.08,0,0,0-10.48.32,13.78,13.78,0,0,0-7,4.88,20.72,20.72,0,0,0-3.51,7.36,41,41,0,0,0-1.11,10.28V150H200V130.74a33.59,33.59,0,0,0-1.41-4.59A29.28,29.28,0,0,0,196,121Zm-8.15,25-21-3.7v-2.5q0-3.91.16-6.16a13,13,0,0,1,1.25-4.56,5.78,5.78,0,0,1,2.94-2.87,8.25,8.25,0,0,1,5.11-.51,18.25,18.25,0,0,1,5.09,1.53A11.91,11.91,0,0,1,185,130.2a9.86,9.86,0,0,1,1.53,2.7,14.92,14.92,0,0,1,.92,3.15,28,28,0,0,1,.33,3.92q0,2.22,0,4.72Z"/><path class="cls-3" d="M194.7,84.6l-6.8-.08a16.51,16.51,0,0,1-10.22-3.69L167.09,79V49.07l-13.37-2.36V94.13L200,102.29V90A5.36,5.36,0,0,0,194.7,84.6Z"/><path class="cls-3" d="M179.38,53.59V57.1a11.33,11.33,0,0,1,4.5-.52l8.87.78V55.95Z"/><path class="cls-3" d="M195.09,0,194,.66c-.1-.22-.21-.44-.31-.66H154c-.19,2-.29,4.18-.29,6.59V34.8L200,43V25.44l-1.88-.33V18.8L200,17.7V0ZM185.5,22.88l-18.88-3.33V13.67q0-3,.19-5a10.74,10.74,0,0,1,.9-3.52,5.18,5.18,0,0,1,2.94-2.85,8.91,8.91,0,0,1,4.55-.21A13.47,13.47,0,0,1,180,3.76a10.64,10.64,0,0,1,3.15,3.08,11.13,11.13,0,0,1,1.91,4.69,38.32,38.32,0,0,1,.45,6.32Z"/></g></g></svg>