<svg xmlns="http://www.w3.org/2000/svg" viewBox="0 0 200 186.67"><defs><style>.cls-1{fill:#25336e;}.cls-2{fill:#fff;}.cls-3{fill:#d65717;}</style></defs><title>Element 10 1</title><g id="Ebene_2" data-name="Ebene 2"><g id="Ebene_1-2" data-name="Ebene 1"><path class="cls-1" d="M7.52,129.28A6.64,6.64,0,0,0,4,129.8a43.24,43.24,0,0,0,8.59,3.26Z"/><path class="cls-1" d="M134.31,29.08,133,14.26A15.68,15.68,0,0,0,117.35,0h0A19.68,19.68,0,0,0,97.67,19.68v11a6,6,0,0,1-6,6l-84.46.16A7.26,7.26,0,0,1,9,40.57,14.73,14.73,0,0,1,9.24,43q0,3.68-1.86,5.15T1.79,49A16.28,16.28,0,0,1,0,48.56v.68l.6.11V52L0,51.87v10a59.74,59.74,0,0,1,43.07,41.9,60.75,60.75,0,0,1,1.46,6.74c-1.77,4.36-5.27,7.73-9.65,10.2l-.55,6.12a21.65,21.65,0,0,1-1.72,6.48c5.75-1.66,10.42-5.08,12.59-10.61a59.75,59.75,0,0,1-8.27,27.57,39.79,39.79,0,0,1-5,1C19.68,153,8.63,148.37,0,139.33v13c6.73,7.51,15.28,12.19,24.33,11.06.87-.11,1.74-.26,2.59-.44A59.41,59.41,0,0,1,7,175.62a28.93,28.93,0,0,1-7-4.89v15.94H200v-150H142.62A8.35,8.35,0,0,1,134.31,29.08ZM2.47,52.33V49.69l2.9.53v2.64Zm21.47.34-7.78-1.44a6.77,6.77,0,0,1-3.87-2,7.55,7.55,0,0,1-1.86-3.86,10,10,0,0,1-.18-2.15,8.42,8.42,0,0,1,.7-3.72A3.78,3.78,0,0,1,13,37.56a6.2,6.2,0,0,1,3.34-.16L24,38.8Z"/><path class="cls-2" d="M2.83,37.16a3.53,3.53,0,0,1,1.66,2.65,11.73,11.73,0,0,1,.16,1.45c0,.3,0,.62,0,1a7.68,7.68,0,0,1-.51,3.36c-.38.8-1.17,1.1-2.39.87a3.55,3.55,0,0,1-1-.36A2.89,2.89,0,0,1,0,45.52v3A16.28,16.28,0,0,0,1.79,49q3.75.67,5.58-.8T9.24,43A14.73,14.73,0,0,0,9,40.57a7.26,7.26,0,0,0-1.83-3.75H2A3.16,3.16,0,0,1,2.83,37.16Z"/><path class="cls-2" d="M.36,36.84H0V37A1.48,1.48,0,0,1,.36,36.84Z"/><polygon class="cls-2" points="0.6 51.99 0.6 49.35 0 49.24 0 51.87 0.6 51.99"/><path class="cls-1" d="M0,37.1a1.59,1.59,0,0,1,.6-.26H.36A1.48,1.48,0,0,0,0,37Z"/><path class="cls-1" d="M.6,36.84a1.59,1.59,0,0,0-.6.26v8.39a2.88,2.88,0,0,0,.77.61,3.58,3.58,0,0,0,1,.33q1.84.34,2.39-.87a7.68,7.68,0,0,0,.51-3.36c0-.32,0-.61,0-.89s0-.51-.06-.74v-.15c0-.23-.06-.45-.09-.63a3.56,3.56,0,0,0-1.6-2.62,3.21,3.21,0,0,0-.91-.33Z"/><path class="cls-3" d="M7,175.62A59.41,59.41,0,0,0,26.92,163c-.86.17-1.72.33-2.59.44C15.28,164.53,6.73,159.85,0,152.34v18.39A28.93,28.93,0,0,0,7,175.62Z"/><path class="cls-3" d="M6.44,105.63l16.39,2.46c5.92.89,12.57,5.77,12.13,11.74l-.08.88c4.38-2.47,7.88-5.84,9.65-10.2a60.75,60.75,0,0,0-1.46-6.74A59.74,59.74,0,0,0,0,61.88V98.16A7.56,7.56,0,0,0,6.44,105.63Z"/><path class="cls-3" d="M21.21,139.5l-8.64-6.44A43.24,43.24,0,0,1,4,129.8a6.68,6.68,0,0,0-4,6.11v3.42c8.63,9,19.68,13.68,31.89,12a39.79,39.79,0,0,0,5-1,59.75,59.75,0,0,0,8.27-27.57c-2.17,5.53-6.84,9-12.59,10.61C30.49,138,26.62,141,21.21,139.5Z"/></g></g></svg>