<svg xmlns="http://www.w3.org/2000/svg" viewBox="0 0 231.07 184"><defs><style>.cls-1{fill:#25336e;}.cls-2{fill:#fff;}</style></defs><title>Element 7</title><g id="Ebene_2" data-name="Ebene 2"><g id="Ebene_1-2" data-name="Ebene 1"><path class="cls-1" d="M82.94,155.87l-.13,12.77A15.21,15.21,0,0,0,98,184h0a16.69,16.69,0,0,0,16.55-18.82l-1-7.85a6.22,6.22,0,0,1,6.16-7l40.47-.08v-7.54l-6.32-1.17v0h-.06l0-2.32L165,141.26v0h.06v8.94h3.09l-.56-.1v-2.35l5.13.95V145l-6.38-1.18v-2.35l11.18,2.06v6.64h1.93v-5.42a2.61,2.61,0,0,1,.88-.22,14,14,0,0,1,2.35-.15,18.26,18.26,0,0,1,3.17.32,11.62,11.62,0,0,1,3.61,1.22,6.42,6.42,0,0,1,2.25,2,7.25,7.25,0,0,1,1,2.19h2a4.29,4.29,0,0,1,1.29-1.85,4.66,4.66,0,0,1,2.39-.93,8.93,8.93,0,0,1,1.58,0V136.9l-46.13-8.52V110.77L200,119.29V101.6a5,5,0,0,1,5.57-5l4.37.47a19.09,19.09,0,0,0,21.13-19V75.3a7.07,7.07,0,0,0-5.88-7l-17.08-.22A8.22,8.22,0,0,1,200,59.88V.41L197.65,0H128a5.74,5.74,0,0,0-5.13,8.31l4.5,9a12.45,12.45,0,0,1-11.14,18H103.63A22.3,22.3,0,0,1,82.34,6.41h0A4.94,4.94,0,0,0,77.62,0H0V150H77.13A5.81,5.81,0,0,1,82.94,155.87ZM186.49,10.46l13.09,2.31V44l-13.09-2.31ZM153.87,41.1l13.37,2.36V64.18l56.73,10V91.79l-56.73-10V102.5l-13.37-2.36Z"/><polygon class="cls-2" points="166.37 141.51 166.37 143.87 172.75 145.04 172.73 148.72 167.6 147.78 167.59 150.13 168.15 150.23 177.54 150.21 177.55 143.57 166.37 141.51"/><path class="cls-2" d="M189.48,146a11.62,11.62,0,0,0-3.61-1.22,18.26,18.26,0,0,0-3.17-.32,14,14,0,0,0-2.35.15,2.61,2.61,0,0,0-.88.22v5.42h5.14v-1.05l-1.5-.28v-1.68a8.85,8.85,0,0,1,1-.05,9.4,9.4,0,0,1,1.78.18,3.16,3.16,0,0,1,2.37,2.76l0,.11h4.39a7.25,7.25,0,0,0-1-2.19A6.42,6.42,0,0,0,189.48,146Z"/><path class="cls-2" d="M198.42,147.4a4.66,4.66,0,0,0-2.39.93,4.29,4.29,0,0,0-1.29,1.85H200v-2.82A8.93,8.93,0,0,0,198.42,147.4Z"/><polygon class="cls-2" points="160.25 150.25 165 150.24 165.01 141.28 153.89 139.23 153.87 141.53 160.19 142.69 160.19 142.71 160.25 142.72 160.25 150.25"/><polygon class="cls-2" points="167.24 81.78 223.97 91.79 223.97 74.18 167.24 64.18 167.24 43.46 153.87 41.1 153.87 100.14 167.24 102.5 167.24 81.78"/><polygon class="cls-2" points="153.87 128.38 200 136.9 200 119.29 153.87 110.77 153.87 128.38"/></g></g></svg>