<svg xmlns="http://www.w3.org/2000/svg" viewBox="0 0 233.33 178"><defs><style>.cls-1{fill:#25336e;}.cls-2{fill:#fff;}</style></defs><title>Element 1</title><g id="Ebene_2" data-name="Ebene 2"><g id="Ebene_1-2" data-name="Ebene 1"><path class="cls-1" d="M82,154.83l-.84,4A15.89,15.89,0,0,0,96.71,178h0a20.06,20.06,0,0,0,20-18.39l.8-9.61H154c.11-1.22.25-2.39.44-3.45a18.15,18.15,0,0,1,3-7.47,14.21,14.21,0,0,1,6.1-4.91q3.7-1.56,9.39-.56A25.77,25.77,0,0,1,186,139.54,32.64,32.64,0,0,1,193.71,150h1.38l4.91-3V109.47l-32.91-5.8v20.72L153.72,122V63l13.37,2.36V86.05l37.44,6.6a5.23,5.23,0,0,1,1.26,0L222,94.42a10.25,10.25,0,0,0,11.37-10.19V74.37A8.56,8.56,0,0,0,224,65.84l-2.17.2q-1,2.7-2.14,5.14L203,68.23V67a5.25,5.25,0,0,1-3-4.75V32.74a11.21,11.21,0,0,0-1.79,3.75q-.94,3.41-1.79,7.34a53.69,53.69,0,0,1-2.07,7.24q-2.87,7.64-7.72,10.32t-12.15,1.39Q164.64,61,158.54,51.63a39.34,39.34,0,0,1-6.1-21.89,58.52,58.52,0,0,1,1.27-12.23A46.76,46.76,0,0,1,157.15,7l16,2.82v1.55a27.67,27.67,0,0,0-5.65,8.54,27.31,27.31,0,0,0-2.31,11.15,24.67,24.67,0,0,0,.33,4.2,18.51,18.51,0,0,0,1.27,4.09A10.06,10.06,0,0,0,169,42.63a6.22,6.22,0,0,0,3.32,1.79,4.49,4.49,0,0,0,4.26-1.16q1.58-1.63,2.85-6.87.8-3.39,1.56-6.53a55.31,55.31,0,0,1,2.07-6.63q2.64-6.84,7.09-9.6Q194,11.24,200,11.88V0H0V150H78.07A4,4,0,0,1,82,154.83Z"/><path class="cls-2" d="M186,139.54A25.77,25.77,0,0,0,173,133.62q-5.7-1-9.39.56a14.21,14.21,0,0,0-6.1,4.91,18.15,18.15,0,0,0-3,7.47c-.18,1.06-.32,2.23-.44,3.45h39.7A32.64,32.64,0,0,0,186,139.54Z"/><path class="cls-2" d="M167.09,65.34,153.72,63V122l13.37,2.36V103.67l32.91,5.8V97.83a5.22,5.22,0,0,1,4.53-5.18l-37.44-6.6Z"/><path class="cls-2" d="M190.19,13.63q-4.45,2.77-7.09,9.6A55.31,55.31,0,0,0,181,29.86q-.75,3.14-1.56,6.53-1.27,5.24-2.85,6.87a4.49,4.49,0,0,1-4.26,1.16A6.22,6.22,0,0,1,169,42.63a10.06,10.06,0,0,1-2.24-3.24,18.51,18.51,0,0,1-1.27-4.09,24.67,24.67,0,0,1-.33-4.2,27.31,27.31,0,0,1,2.31-11.15,27.67,27.67,0,0,1,5.65-8.54V9.85L157.15,7a46.76,46.76,0,0,0-3.44,10.48,58.52,58.52,0,0,0-1.27,12.23,39.34,39.34,0,0,0,6.1,21.89q6.1,9.41,15.94,11.14,7.3,1.29,12.15-1.39t7.72-10.32a53.69,53.69,0,0,0,2.07-7.24q.85-3.92,1.79-7.34A11.21,11.21,0,0,1,200,32.74V11.88Q194,11.24,190.19,13.63Z"/></g></g></svg>