<svg xmlns="http://www.w3.org/2000/svg" viewBox="0 0 234.98 150"><defs><style>.cls-1{fill:#25336e;}.cls-2{fill:#fff;}.cls-3{fill:#d65717;}</style></defs><title>Element 10</title><g id="Ebene_2" data-name="Ebene 2"><g id="Ebene_1-2" data-name="Ebene 1"><path class="cls-1" d="M182.35,65.26c-3.55,11.87-6.7,38.77.85,58,2.8,7.12,7.85,14.19,14.25,18.53A59.71,59.71,0,0,1,186.7,143c-9.25-7-16-18.2-19-28.38.64,11.54,4.69,21.42,10.64,28a59.56,59.56,0,0,1-9-1.81c-5.57-5.77-11.41-13.81-15.89-26.33.25,8.67,2.91,17.07,7.6,23.31a59.86,59.86,0,0,1-6.18-3.24c-1.29-2-2.36-4.14-4.07-7.37-10.31-19.49-10.83-52.15-1-65a82.79,82.79,0,0,1,5.81-7c8.41-7.91,21-19.23,35-12.11-10.89,3.58-14.62,11.2-16.15,20.05-1.13,4.3-5.61,4.71-7.45,6.74,5.3,6.73,4.83,19.28,8.18,26.47-1.88-21,6.16-51.59,20.75-50.85-4.05-5-11.54-7.32-17.1-6.73a25.21,25.21,0,0,0-7.21,2c-7.09,3.57-16.18,8.94-23.62,17.92-8.92,12-14.27,25.33-10.82,45.58,1.82,7.54,3.85,13.59,6.65,18.5a68.33,68.33,0,0,0,6.94,9.06A59.76,59.76,0,0,1,200,25.21v-10l-2.3-.42V12.15l2.3.42v-.68a9,9,0,0,1-3.36-1.73,7,7,0,0,1-2.24-4.11,13.92,13.92,0,0,1-.2-2.45A9.92,9.92,0,0,1,194.65.4c0-.08.06-.14.09-.22h-2c.06.21.11.42.15.64a15.22,15.22,0,0,1,.2,3q-.18,6.64-6.93,5.57-1.66-.31-2.95-.68T181.12,8a4.41,4.41,0,0,1-.77-.34L179.7,4.5A20.83,20.83,0,0,0,182,5.67a11.31,11.31,0,0,0,2.18.62q.29.05,1,.13a2.63,2.63,0,0,0,2.49-.74,4.52,4.52,0,0,0,.74-2.8A15.75,15.75,0,0,0,188.3.19h-3.69V1.5L179.47.55V.21h-1.93V7.44l-11.08-2V3l6.28,1.16,0-3.13L168.15.23h-3.09V5.16l-4.8-.89v0h-.06v-4L119.73.32a6.22,6.22,0,0,0-6.16,7l1,7.85A16.69,16.69,0,0,1,98,34h0A15.21,15.21,0,0,1,82.82,18.64l.13-12.77A5.81,5.81,0,0,0,77.13,0H0V150H200V134.06C183.68,119,177.75,84,182.35,65.26Z"/><path class="cls-1" d="M200,115.67v-13c-6.09-6.38-11-14.93-14.18-25C185.3,90.71,191.05,105.69,200,115.67Z"/><path class="cls-1" d="M192.09,82.72c2.59,4.3,6.86,7.84,11.89,10.41a6.64,6.64,0,0,1,3.53-.51l5.05,3.77c6.8,1.8,14,2,20,.26a21.65,21.65,0,0,0,1.72-6.48l.55-6.12C220.85,92,197.64,90.64,192.09,82.72Z"/><path class="cls-1" d="M158.16,74a5.83,5.83,0,0,1,.26-3.56c.35-1,1.66-2.89,1.82-3.75.1-.39-.14-.93-.85-.54-3,5.55-6,6.79-7.64,16.2-1.27,7.39,1.8,17.62.69,24.27a52,52,0,0,0,2-4.85c3.18-9.91,13-10.85,9.77-19.59C162.36,77.14,158.9,77.63,158.16,74Zm-3,17.71c0-1.24-1.47-3.52-.07-4.65.66-.14,1.23.52,2.31.25,1.51-.38,2.49-2.63,1.08-4.51-.69-.93-2.35-.26-3-.76-.92-.64.19-3.16,2.59-2.92C164.29,81.56,163,91.91,155.2,91.74Z"/><polygon class="cls-2" points="179.47 0.55 184.6 1.5 184.61 0.2 179.47 0.21 179.47 0.55"/><path class="cls-2" d="M199.08,6.89a12.42,12.42,0,0,1-.14-2.47c0-.1,0-.19,0-.29s0-.22,0-.33,0-.37,0-.54,0-.33.05-.49,0-.26,0-.38.07-.35.11-.51,0-.17.05-.25a4.6,4.6,0,0,1,.22-.64A1.45,1.45,0,0,1,200,.37V.17h-5.26c0,.07-.06.14-.09.22a9.92,9.92,0,0,0-.44,3.21,13.92,13.92,0,0,0,.2,2.45,7,7,0,0,0,2.24,4.11A9,9,0,0,0,200,11.89v-3A3.78,3.78,0,0,1,199.08,6.89Z"/><polygon class="cls-2" points="172.72 1.07 172.74 4.2 166.46 3.04 166.45 5.4 177.53 7.44 177.54 0.21 168.15 0.23 172.72 1.07"/><path class="cls-2" d="M188.46,2.88a4.52,4.52,0,0,1-.74,2.8,2.63,2.63,0,0,1-2.49.74q-.71-.07-1-.13A11.31,11.31,0,0,1,182,5.67,20.83,20.83,0,0,1,179.7,4.5l.65,3.16a4.41,4.41,0,0,0,.77.34q.76.3,2.05.67t2.95.68q6.75,1.08,6.93-5.57a15.22,15.22,0,0,0-.2-3c0-.22-.09-.43-.15-.64H188.3A15.75,15.75,0,0,1,188.46,2.88Z"/><polygon class="cls-2" points="197.7 14.78 200 15.21 200 12.57 197.7 12.14 197.7 14.78"/><path class="cls-1" d="M199.51,1A8.1,8.1,0,0,0,199,4.09c0,.12,0,.24,0,.36a12.38,12.38,0,0,0,.14,2.47,3.83,3.83,0,0,0,.86,1.9V.43A1.46,1.46,0,0,0,199.51,1Z"/><polygon class="cls-2" points="165 0.24 160.25 0.24 160.25 4.25 164.99 5.13 165 0.24"/><path class="cls-3" d="M158.12,79.15c-2.39-.24-3.51,2.28-2.59,2.92.64.5,2.3-.17,3,.76,1.41,1.88.43,4.13-1.08,4.51-1.08.27-1.65-.39-2.31-.25-1.4,1.13,0,3.4.07,4.65C163,91.91,164.29,81.56,158.12,79.15Z"/><path class="cls-3" d="M169.41,25.62a59.76,59.76,0,0,0-18.77,106.12,68.33,68.33,0,0,1-6.94-9.06c-2.8-4.91-4.82-11-6.65-18.5-3.45-20.25,1.9-33.6,10.82-45.58,7.44-9,16.53-14.35,23.62-17.92a25.21,25.21,0,0,1,7.21-2c5.56-.58,13,1.72,17.1,6.73-14.58-.74-22.63,29.86-20.75,50.85-3.35-7.18-2.87-19.74-8.18-26.47,1.84-2,6.31-2.44,7.45-6.74,1.53-8.85,5.26-16.47,16.15-20.05-14-7.13-26.54,4.2-35,12.11a82.79,82.79,0,0,0-5.81,7c-9.78,12.85-9.27,45.51,1,65,1.71,3.23,2.77,5.39,4.07,7.37a59.86,59.86,0,0,0,6.18,3.24c-4.68-6.24-7.35-14.64-7.6-23.31,4.48,12.52,10.32,20.57,15.89,26.33a59.56,59.56,0,0,0,9,1.81c-5.95-6.54-10-16.42-10.64-28,3,10.18,9.76,21.35,19,28.38a59.71,59.71,0,0,0,10.75-1.23c-6.41-4.33-11.45-11.4-14.25-18.53-7.54-19.19-4.39-46.09-.85-58C177.75,84,183.68,119,200,134.06V115.67c-8.95-10-14.7-25-14.18-38,3.21,10.07,8.09,18.62,14.18,25V99.24a6.68,6.68,0,0,1,4-6.11c-5-2.57-9.31-6.11-11.89-10.41,5.55,7.91,28.76,9.25,42.79,1.33l.08-.88c.44-6-6.21-10.85-12.13-11.74L206.44,69A7.56,7.56,0,0,1,200,61.49V25.21A59.5,59.5,0,0,0,169.41,25.62Zm-15,76.19a52,52,0,0,1-2,4.85c1.12-6.65-2-16.88-.69-24.27,1.61-9.41,4.65-10.65,7.64-16.2.71-.39,1,.15.85.54-.16.85-1.47,2.78-1.82,3.75a5.83,5.83,0,0,0-.26,3.56c.74,3.6,4.21,3.11,6.07,8.19C167.43,91,157.64,91.91,154.46,101.81Z"/><path class="cls-3" d="M212.57,96.39l8.64,6.44c5.41,1.51,9.28-1.5,11.4-6.18C226.58,98.39,219.37,98.18,212.57,96.39Z"/></g></g></svg>