<svg xmlns="http://www.w3.org/2000/svg" viewBox="0 0 200 150.17"><defs><style>.cls-1{fill:#25336e;}.cls-2{fill:#fff;}</style></defs><title>Element 8</title><g id="Ebene_2" data-name="Ebene 2"><g id="Ebene_1-2" data-name="Ebene 1"><path class="cls-1" d="M131,7.25l1.23,13.8A13,13,0,0,1,120.39,35.3l-.9,0h0A21.08,21.08,0,0,1,98.57,11.69l.59-4.83A6.11,6.11,0,0,0,93.1,0H24V4.64L0,.41V59.88A8.22,8.22,0,0,0,8.12,68.1l17.08.22a7.07,7.07,0,0,1,5.88,7v2.79a19.09,19.09,0,0,1-21.13,19L5.57,96.6a5,5,0,0,0-5.57,5v17.69l24,4.43v17.61L0,136.9v10.45a14.43,14.43,0,0,1,1.86.23,10.11,10.11,0,0,1,4.93,2.13c.16.14.28.3.42.45L91.67,150a6,6,0,0,0,6-6V133a19.68,19.68,0,0,1,19.68-19.68h0A15.68,15.68,0,0,1,133,127.59l1.35,14.82a8.35,8.35,0,0,0,8.31,7.59H200V0H137.61A6.66,6.66,0,0,0,131,7.25Z"/><path class="cls-2" d="M.36,150.17a3,3,0,0,1,1.5,0l.11,0H7.21c-.14-.15-.27-.31-.42-.45a10.11,10.11,0,0,0-4.93-2.13A14.43,14.43,0,0,0,0,147.35v2.82Z"/><path class="cls-1" d="M1.92,150.17H2l-.11,0a3,3,0,0,0-1.5,0H.6A3.19,3.19,0,0,1,1.92,150.17Z"/><path class="cls-1" d="M1.92,150.17a3.19,3.19,0,0,0-1.32,0H1.92Z"/><polygon class="cls-2" points="0 0.41 23.97 4.64 23.97 0 0 0 0 0.41"/><polygon class="cls-2" points="23.96 141.32 23.96 123.71 0 119.29 0 136.9 23.96 141.32"/></g></g></svg>