<svg xmlns="http://www.w3.org/2000/svg" viewBox="0 0 238.94 220.06"><defs><style>.cls-1{fill:#25336e;}.cls-2{fill:#e9611c;}.cls-3{fill:#fff;}</style></defs><title>Element 6</title><g id="Ebene_2" data-name="Ebene 2"><g id="Ebene_1-2" data-name="Ebene 1"><path class="cls-1" d="M62.78,54.6,38.94,50.4V66.14q15.6-4,34.61-9.46Q83.68,52.77,83.62,48q0-3-6.73-10.56a7,7,0,0,1-1.68-2.67H49.94L62.78,37Z"/><path class="cls-1" d="M158.23,30.25l-.09-8.2A22.35,22.35,0,0,0,138.79.14h0a15,15,0,0,0-17,15.58l.73,14.77a5,5,0,0,1-4.9,4.24H88.77Q107.46,49.29,109,58.11q1.78,11.21-15.42,17-23.08,7.67-54.65,15v3.29a5.67,5.67,0,0,1-1.64,4q89.41,69.3,133.36,71,13,.26,20.29-3.62,8.45-4.71,8.52.71,0,2.2-3.27,4.64-12,8.95-17.84,11.42-8.7,3.89-22.17,3.84-19.38-.2-61.74-27.63-39-25.06-80-61.32Q8.66,97.68,3.34,98.93a10.94,10.94,0,0,0-3.28,9,22.15,22.15,0,0,0,24,19.81l7.23-.66a7,7,0,0,1,7.62,7v33.58l10.6,1.87V139.6L62.91,142v42.77H132a6.11,6.11,0,0,1,6.06,6.85l-.59,4.83a21.08,21.08,0,0,0,20.92,23.65h0l.9,0a13,13,0,0,0,11.81-14.25L169.92,192a6.66,6.66,0,0,1,6.64-7.25h62.39v-150H162.75A4.52,4.52,0,0,1,158.23,30.25Z"/><path class="cls-2" d="M32.35,99,12.72,95.94a10.94,10.94,0,0,0-9.38,3q5.32-1.24,11.07-2.53,41,36.26,80,61.32,42.35,27.43,61.74,27.63,13.48.06,22.17-3.84,5.88-2.47,17.84-11.42,3.28-2.44,3.27-4.64-.06-5.42-8.52-.71-7.29,3.88-20.29,3.62-44-1.67-133.36-71A5.69,5.69,0,0,1,32.35,99Z"/><path class="cls-2" d="M83.62,48q0,4.81-10.07,8.72-19,5.43-34.61,9.46v24q31.57-7.29,54.65-15,17.19-5.79,15.42-17-1.55-8.82-20.24-23.39H75.21a7,7,0,0,0,1.68,2.67Q83.6,44.95,83.62,48Z"/><polygon class="cls-3" points="62.91 184.73 62.91 141.96 49.54 139.6 49.54 169.49 38.95 167.63 38.95 184.73 62.91 184.73"/><polygon class="cls-3" points="38.95 50.4 62.78 54.6 62.78 36.99 49.94 34.73 38.95 34.73 38.95 50.4"/></g></g></svg>