<svg xmlns="http://www.w3.org/2000/svg" viewBox="0 0 228.5 150"><defs><style>.cls-1{fill:#25336e;}.cls-2{fill:#e9611c;}.cls-3{fill:#fff;}</style></defs><title>Element 4</title><g id="Ebene_2" data-name="Ebene 2"><g id="Ebene_1-2" data-name="Ebene 1"><path class="cls-1" d="M7.88,57.1A11.39,11.39,0,0,0,0,67.93H0a16.55,16.55,0,0,0,6.18,12.9l1.7.3Z"/><path class="cls-1" d="M139.66,7.44l.82,5.23a16.82,16.82,0,1,1-33.27.09l1-7.18A4.9,4.9,0,0,0,103.37,0h-51V3.79L28.5,17.7v7.74l23.83,4.2V47.16L28.5,43V52a5.46,5.46,0,0,1-5.94,5.44l-1.3-.11V83.49L39,86.62V56.72l13.37,2.36v47.42l-23.83-4.2v28.45c.1.44.2.88.29,1.33A36.21,36.21,0,0,1,29.4,139v9.23L39.5,150H64.77a5.08,5.08,0,0,1-.25-1.52q0-3.81,4.22-3.85A7.7,7.7,0,0,1,73,146c1.88,1.37,3.65,2.71,5.33,4h28.89a5,5,0,0,0,4.9-4.24L111.39,131a15,15,0,0,1,17-15.58h0a22.35,22.35,0,0,1,19.35,21.91l.09,8.2a4.52,4.52,0,0,0,4.52,4.48H228.5V0H146A6.44,6.44,0,0,0,139.66,7.44Z"/><path class="cls-2" d="M73,146a7.7,7.7,0,0,0-4.26-1.36q-4.26,0-4.22,3.85a5.08,5.08,0,0,0,.25,1.52H78.33C76.65,148.69,74.88,147.36,73,146Z"/><path class="cls-3" d="M39.5,150l-10.1-1.78V139a36.21,36.21,0,0,0-.61-6.91c-.09-.45-.19-.89-.29-1.33V150Z"/><path class="cls-3" d="M7.88,57.1v24l-1.7-.3A16.51,16.51,0,0,0,16.4,84.53l6.8.08A5.36,5.36,0,0,1,28.5,90v12.32l23.83,4.2V59.07L39,56.72v29.9L21.25,83.49V57.36l-8.87-.78A11.33,11.33,0,0,0,7.88,57.1Z"/><polygon class="cls-3" points="52.33 47.16 52.33 29.64 28.5 25.44 28.5 42.96 52.33 47.16"/><polygon class="cls-3" points="28.5 17.7 52.33 3.79 52.33 0 28.5 0 28.5 17.7"/></g></g></svg>