<svg xmlns="http://www.w3.org/2000/svg" viewBox="0 0 200 182"><defs><style>.cls-1{fill:#25336e;}.cls-2{fill:#fff;}</style></defs><title>Element 2</title><g id="Ebene_2" data-name="Ebene 2"><g id="Ebene_1-2" data-name="Ebene 1"><path class="cls-1" d="M9.89,56.21A31.56,31.56,0,0,0,12.3,44.3a32.65,32.65,0,0,0-.33-4,15.76,15.76,0,0,0-1-4.16,11.13,11.13,0,0,0-2.24-3.5A6.62,6.62,0,0,0,4.9,30.66,4.42,4.42,0,0,0,.62,32a9.26,9.26,0,0,0-.62.77V62.26A5.25,5.25,0,0,0,3,67v-.38A31.1,31.1,0,0,0,9.89,56.21Z"/><path class="cls-1" d="M0,0V11.88c.63.07,1.27.15,1.94.27A25,25,0,0,1,18.75,23.33q6.36,9.34,6.36,23.32a54.33,54.33,0,0,1-1.55,13.88q-.77,2.88-1.72,5.51l2.17-.2a8.56,8.56,0,0,1,9.33,8.53v9.86A10.25,10.25,0,0,1,22,94.42L5.8,92.64a5.23,5.23,0,0,0-1.26,0l19.3,3.4v17.61L0,109.47V147l23.83-14.66V150h51a4.9,4.9,0,0,1,4.85,5.58l-1,7.18a16.82,16.82,0,1,0,33.27-.09l-.82-5.23a6.44,6.44,0,0,1,6.36-7.44H200V0Z"/><polygon class="cls-2" points="23.83 150 23.83 132.32 0 146.98 0 150 23.83 150"/><path class="cls-2" d="M0,97.83v11.64l23.83,4.2V96.06l-19.3-3.4A5.22,5.22,0,0,0,0,97.83Z"/><path class="cls-2" d="M.62,32A4.42,4.42,0,0,1,4.9,30.66,6.62,6.62,0,0,1,8.69,32.6a11.13,11.13,0,0,1,2.24,3.5,15.76,15.76,0,0,1,1,4.16,32.65,32.65,0,0,1,.33,4,31.56,31.56,0,0,1-2.4,11.91A31.1,31.1,0,0,1,3,66.63V67a5.22,5.22,0,0,0,2.7.48L21.83,66q1-2.63,1.72-5.51A54.33,54.33,0,0,0,25.1,46.65q0-14-6.36-23.32A25,25,0,0,0,1.94,12.15C1.27,12,.63,11.94,0,11.88V32.74A9.26,9.26,0,0,1,.62,32Z"/></g></g></svg>